<svg width="430" height="135" viewBox="0 0 430 135" fill="none" xmlns="http://www.w3.org/2000/svg">
<path d="M152.814 34.092V65.096H145.868V53.228H134.276V65.096H127.33V34.092H134.276V46.328H145.868V34.092H152.814Z" fill="#41BDF5"/>
<path d="M156.77 65.142L169.006 34H173.514L184.83 65.142H177.424L175.584 59.898H166.2L164.222 65.142H156.77ZM168.914 52.998H173.1L171.122 47.478L168.914 52.998Z" fill="#41BDF5"/>
<path d="M185.198 49.686C185.198 41.084 192.144 34.138 200.746 34.138C205.07 34.138 209.256 35.978 212.246 39.244L207.232 43.752C205.53 41.912 203.184 40.854 200.746 40.854C195.87 40.854 191.96 44.764 191.96 49.64C191.96 54.47 195.87 58.426 200.746 58.426C203.184 58.426 205.53 57.414 207.232 55.528L212.246 60.082C209.256 63.348 205.116 65.188 200.746 65.188C192.144 65.188 185.198 58.196 185.198 49.686Z" fill="#41BDF5"/>
<path d="M239.064 56.816C238.834 59.484 237.04 61.922 234.326 63.44C232.302 64.544 229.956 65.096 227.472 65.096C226.92 65.096 226.414 65.05 225.908 65.004C221.538 64.59 217.72 62.52 215.788 59.53L221.446 55.804C222.09 56.862 223.93 58.058 226.552 58.288C228.254 58.472 229.956 58.15 231.152 57.506C231.888 57.138 232.394 56.586 232.44 56.126C232.486 55.528 232.256 53.458 227.15 52.952C219.836 52.262 215.282 47.984 215.834 42.418C216.064 39.658 217.858 37.266 220.618 35.702C223.01 34.46 226.046 33.862 229.036 34.184C233.36 34.598 237.178 36.668 239.156 39.658L233.498 43.338C232.854 42.326 231.014 41.176 228.392 40.946C226.69 40.762 224.988 41.084 223.792 41.682C223.102 42.096 222.596 42.648 222.55 43.062C222.366 45.178 225.908 46.098 227.794 46.236V46.282C235.154 46.972 239.616 51.112 239.064 56.816Z" fill="#41BDF5"/>
<path d="M102.419 43.9051H39.9109C39.2704 43.9051 38.7366 43.3713 38.7366 42.7307V35.4444C38.7366 34.8038 39.2704 34.27 39.9109 34.27H102.419C103.06 34.27 103.593 34.8038 103.593 35.4444V42.7307C103.593 43.3713 103.06 43.9051 102.419 43.9051Z" fill="#41BDF5"/>
<path d="M38.7366 102.383C38.7366 103.157 39.3505 103.771 40.1245 103.771H63.5583H78.7716H82.6417C83.4157 103.771 84.0296 103.157 84.0296 102.383V82.5256C84.0296 81.7516 84.6435 81.1377 85.4175 81.1377H97.5347C98.3087 81.1377 98.9226 81.7516 98.9226 82.5256V102.383C98.9226 103.157 99.5365 103.771 100.311 103.771H102.179C102.953 103.771 103.567 103.157 103.567 102.383V78.789C103.567 78.015 102.953 77.4011 102.179 77.4011H40.1245C39.3505 77.4011 38.7366 78.015 38.7366 78.789V102.383ZM45.676 82.0718H69.3234C69.9639 82.0718 70.4977 82.6056 70.4977 83.2462V97.9524C70.4977 98.593 69.9639 99.1268 69.3234 99.1268H45.676C45.0354 99.1268 44.5017 98.593 44.5017 97.9524V83.2462C44.5017 82.579 45.0354 82.0718 45.676 82.0718Z" fill="#41BDF5"/>
<path d="M103.78 47.7218C103.673 47.1346 103.166 46.7076 102.552 46.7076H78.7717H63.5583H39.7775C39.1636 46.7076 38.6565 47.1346 38.5498 47.7218L35.0267 66.7518C35 66.8318 35 66.9119 35 66.992V73.3709C35 74.0648 35.5605 74.6253 36.2544 74.6253H38.7366H103.593H106.076C106.769 74.6253 107.33 74.0648 107.33 73.3709V66.9653C107.33 66.8852 107.33 66.8051 107.303 66.7251L103.78 47.7218Z" fill="#41BDF5"/>
<path d="M128.702 82.048H135.954C137.895 82.048 139.501 82.3653 140.77 83C142.543 83.896 143.43 85.3893 143.43 87.48C143.43 88.9173 143.029 90.0933 142.226 91.008C141.423 91.9227 140.135 92.6507 138.362 93.192C138.679 93.3227 138.959 93.4533 139.202 93.584C139.445 93.696 139.641 93.8267 139.79 93.976C140.443 94.536 140.957 95.3573 141.33 96.44L144.13 104H141.638L140.182 99.408C139.417 97.112 138.614 95.6093 137.774 94.9C137.046 94.228 135.842 93.892 134.162 93.892H130.914V104H128.702V82.048ZM136.374 83.98H130.914V92.156H134.274C135.618 92.156 136.747 92.0347 137.662 91.792C138.595 91.5307 139.351 91.12 139.93 90.56C140.322 90.2053 140.639 89.7667 140.882 89.244C141.143 88.7213 141.274 88.1893 141.274 87.648C141.274 86.6213 140.854 85.772 140.014 85.1C139.099 84.3533 137.886 83.98 136.374 83.98ZM146.472 82.02H160.136V83.952H148.684V91.54H159.716V93.472H148.684V102.068H160.22V104H146.472V82.02ZM162.603 82.048H169.631C171.647 82.048 173.299 82.3933 174.587 83.084C176.323 84.0547 177.191 85.604 177.191 87.732C177.191 89.7853 176.472 91.372 175.035 92.492C173.728 93.5373 172.048 94.06 169.995 94.06H164.815V104H162.603V82.048ZM169.603 83.98H164.815V92.128H169.771C171.078 92.128 172.207 91.7827 173.159 91.092C174.223 90.308 174.755 89.2533 174.755 87.928C174.755 86.4347 174.13 85.3613 172.879 84.708C171.964 84.2227 170.872 83.98 169.603 83.98ZM189.246 104.364C186.707 104.364 184.486 103.375 182.582 101.396C180.491 99.2493 179.446 96.4773 179.446 93.08C179.446 89.832 180.426 87.088 182.386 84.848C184.29 82.7387 186.549 81.684 189.162 81.684C191.813 81.684 194.09 82.72 195.994 84.792C197.954 86.976 198.934 89.7293 198.934 93.052C198.934 96.5053 197.87 99.3053 195.742 101.452C193.857 103.393 191.691 104.364 189.246 104.364ZM189.078 102.292C191.15 102.292 192.914 101.424 194.37 99.688C195.845 97.9147 196.582 95.7027 196.582 93.052C196.582 91.764 196.405 90.5693 196.05 89.468C195.695 88.3667 195.163 87.368 194.454 86.472C193.035 84.6613 191.281 83.756 189.19 83.756C187.118 83.756 185.363 84.6613 183.926 86.472C182.507 88.2453 181.798 90.4573 181.798 93.108C181.798 95.8707 182.545 98.12 184.038 99.856C185.438 101.48 187.118 102.292 189.078 102.292ZM215.016 83.588V86.416C214.531 86.0053 214.036 85.6413 213.532 85.324C213.047 85.0067 212.562 84.7453 212.076 84.54C210.956 84.0173 209.818 83.756 208.66 83.756C207.204 83.756 206 84.12 205.048 84.848C204.078 85.5947 203.592 86.4813 203.592 87.508C203.592 89.0013 204.694 90.1213 206.896 90.868C207.923 91.2227 208.94 91.568 209.948 91.904C210.975 92.2213 212.011 92.548 213.056 92.884C215.278 93.948 216.388 95.5347 216.388 97.644C216.388 99.6973 215.595 101.349 214.008 102.6C212.496 103.776 210.62 104.364 208.38 104.364C206.887 104.364 205.45 104.075 204.068 103.496C203.266 103.179 202.314 102.656 201.212 101.928V99.072C202.65 100.36 204.106 101.265 205.58 101.788C206.066 101.975 206.542 102.105 207.008 102.18C207.475 102.255 207.942 102.292 208.408 102.292C209.902 102.292 211.162 101.919 212.188 101.172C213.327 100.351 213.896 99.2773 213.896 97.952C213.896 96.3467 212.814 95.124 210.648 94.284C209.603 93.9667 208.576 93.64 207.568 93.304C206.56 92.968 205.552 92.6413 204.544 92.324C202.36 91.316 201.268 89.7667 201.268 87.676C201.268 85.9213 201.959 84.4933 203.34 83.392C204.759 82.2533 206.532 81.684 208.66 81.684C209.967 81.684 211.274 81.9267 212.58 82.412C213.252 82.636 214.064 83.028 215.016 83.588ZM219.66 82.048H221.844V104H219.66V82.048ZM224.499 82.048H241.439V83.98H234.075V104H231.891V83.98H224.499V82.048ZM253.203 104.364C250.664 104.364 248.443 103.375 246.539 101.396C244.448 99.2493 243.403 96.4773 243.403 93.08C243.403 89.832 244.383 87.088 246.343 84.848C248.247 82.7387 250.506 81.684 253.119 81.684C255.77 81.684 258.047 82.72 259.951 84.792C261.911 86.976 262.891 89.7293 262.891 93.052C262.891 96.5053 261.827 99.3053 259.699 101.452C257.814 103.393 255.648 104.364 253.203 104.364ZM253.035 102.292C255.107 102.292 256.871 101.424 258.327 99.688C259.802 97.9147 260.539 95.7027 260.539 93.052C260.539 91.764 260.362 90.5693 260.007 89.468C259.652 88.3667 259.12 87.368 258.411 86.472C256.992 84.6613 255.238 83.756 253.147 83.756C251.075 83.756 249.32 84.6613 247.883 86.472C246.464 88.2453 245.755 90.4573 245.755 93.108C245.755 95.8707 246.502 98.12 247.995 99.856C249.395 101.48 251.075 102.292 253.035 102.292ZM265.393 82.048H272.645C274.587 82.048 276.192 82.3653 277.461 83C279.235 83.896 280.121 85.3893 280.121 87.48C280.121 88.9173 279.72 90.0933 278.917 91.008C278.115 91.9227 276.827 92.6507 275.053 93.192C275.371 93.3227 275.651 93.4533 275.893 93.584C276.136 93.696 276.332 93.8267 276.481 93.976C277.135 94.536 277.648 95.3573 278.021 96.44L280.821 104H278.329L276.873 99.408C276.108 97.112 275.305 95.6093 274.465 94.9C273.737 94.228 272.533 93.892 270.853 93.892H267.605V104H265.393V82.048ZM273.065 83.98H267.605V92.156H270.965C272.309 92.156 273.439 92.0347 274.353 91.792C275.287 91.5307 276.043 91.12 276.621 90.56C277.013 90.2053 277.331 89.7667 277.573 89.244C277.835 88.7213 277.965 88.1893 277.965 87.648C277.965 86.6213 277.545 85.772 276.705 85.1C275.791 84.3533 274.577 83.98 273.065 83.98ZM283.836 82.048H286.02V104H283.836V82.048ZM289.179 82.02H302.843V83.952H291.391V91.54H302.423V93.472H291.391V102.068H302.927V104H289.179V82.02ZM319.114 83.588V86.416C318.629 86.0053 318.134 85.6413 317.63 85.324C317.145 85.0067 316.659 84.7453 316.174 84.54C315.054 84.0173 313.915 83.756 312.758 83.756C311.302 83.756 310.098 84.12 309.146 84.848C308.175 85.5947 307.69 86.4813 307.69 87.508C307.69 89.0013 308.791 90.1213 310.994 90.868C312.021 91.2227 313.038 91.568 314.046 91.904C315.073 92.2213 316.109 92.548 317.154 92.884C319.375 93.948 320.486 95.5347 320.486 97.644C320.486 99.6973 319.693 101.349 318.106 102.6C316.594 103.776 314.718 104.364 312.478 104.364C310.985 104.364 309.547 104.075 308.166 103.496C307.363 103.179 306.411 102.656 305.31 101.928V99.072C306.747 100.36 308.203 101.265 309.678 101.788C310.163 101.975 310.639 102.105 311.106 102.18C311.573 102.255 312.039 102.292 312.506 102.292C313.999 102.292 315.259 101.919 316.286 101.172C317.425 100.351 317.994 99.2773 317.994 97.952C317.994 96.3467 316.911 95.124 314.746 94.284C313.701 93.9667 312.674 93.64 311.666 93.304C310.658 92.968 309.65 92.6413 308.642 92.324C306.458 91.316 305.366 89.7667 305.366 87.676C305.366 85.9213 306.057 84.4933 307.438 83.392C308.857 82.2533 310.63 81.684 312.758 81.684C314.065 81.684 315.371 81.9267 316.678 82.412C317.35 82.636 318.162 83.028 319.114 83.588Z" fill="#41BDF5"/>
<path d="M330.568 78.848H331.624C331.112 79.6693 330.712 80.3253 330.424 80.816C330.136 81.3067 329.96 81.632 329.896 81.792C329.309 83.1253 329.016 84.6347 329.016 86.32C329.016 87.4613 329.139 88.5067 329.384 89.456C329.597 90.2027 329.917 90.9653 330.344 91.744C330.365 91.7973 330.477 91.9893 330.68 92.32C330.893 92.6613 331.192 93.152 331.576 93.792H330.568C330.355 93.4827 330.147 93.1787 329.944 92.88C329.752 92.592 329.549 92.2987 329.336 92C329.08 91.5947 328.856 91.1947 328.664 90.8C328.483 90.3947 328.323 90 328.184 89.616C327.843 88.56 327.672 87.4613 327.672 86.32C327.672 85.168 327.832 84.096 328.152 83.104C328.28 82.72 328.435 82.336 328.616 81.952C328.808 81.5573 329.032 81.1573 329.288 80.752C329.501 80.432 329.715 80.1173 329.928 79.808C330.141 79.488 330.355 79.168 330.568 78.848ZM333.656 83.44H334.824V88.896C334.824 89.504 335 90.016 335.352 90.432C335.736 90.912 336.28 91.152 336.984 91.152C337.795 91.152 338.488 90.8267 339.064 90.176C339.661 89.4933 339.96 88.7413 339.96 87.92V83.44H341.112V92H340.104L340.024 90.544C339.853 90.7787 339.672 90.992 339.48 91.184C339.288 91.3653 339.08 91.5253 338.856 91.664C338.259 92.0267 337.603 92.208 336.888 92.208C335.907 92.208 335.123 91.904 334.536 91.296C333.949 90.6773 333.656 89.9253 333.656 89.04V83.44ZM350.035 86.272V92H348.883V86.352C348.883 85.7547 348.664 85.264 348.227 84.88C347.79 84.4853 347.267 84.288 346.659 84.288C345.848 84.288 345.15 84.624 344.563 85.296C343.976 85.9787 343.683 86.7467 343.683 87.6V92H342.595V83.44H343.603L343.651 85.04C343.939 84.6027 344.275 84.24 344.659 83.952C345.288 83.4827 345.998 83.248 346.787 83.248C347.704 83.248 348.472 83.5253 349.091 84.08C349.72 84.624 350.035 85.3547 350.035 86.272ZM355.533 92.208C354.434 92.208 353.469 91.808 352.637 91.008C351.751 90.1653 351.309 89.072 351.309 87.728C351.309 86.4587 351.698 85.3973 352.477 84.544C353.277 83.68 354.263 83.248 355.437 83.248C356.599 83.248 357.581 83.68 358.381 84.544C359.17 85.3973 359.565 86.4533 359.565 87.712C359.565 89.0347 359.138 90.128 358.285 90.992C357.495 91.8027 356.578 92.208 355.533 92.208ZM355.421 91.152C356.189 91.152 356.871 90.832 357.469 90.192C358.045 89.5413 358.333 88.7147 358.333 87.712C358.333 86.6773 358.023 85.8347 357.405 85.184C356.839 84.5867 356.183 84.288 355.437 84.288C354.669 84.288 354.013 84.5973 353.469 85.216C352.871 85.8987 352.573 86.736 352.573 87.728C352.573 88.7307 352.866 89.568 353.453 90.24C353.997 90.848 354.653 91.152 355.421 91.152ZM361.757 83.424V81.792C361.757 81.0347 361.901 80.4587 362.189 80.064C362.551 79.52 363.165 79.248 364.029 79.248C364.125 79.248 364.21 79.2533 364.285 79.264C364.359 79.264 364.434 79.2693 364.509 79.28C364.594 79.2907 364.69 79.312 364.797 79.344C364.903 79.376 365.031 79.4133 365.181 79.456V80.512C365.149 80.4693 364.999 80.4213 364.733 80.368C364.615 80.3467 364.509 80.3307 364.413 80.32C364.327 80.3093 364.253 80.304 364.189 80.304C363.741 80.304 363.415 80.432 363.213 80.688C363.01 80.944 362.909 81.312 362.909 81.792V83.424H365.181V84.464H362.909V92H361.757V84.464H360.301V83.424H361.757ZM367.194 83.424V81.792C367.194 81.0347 367.338 80.4587 367.626 80.064C367.989 79.52 368.602 79.248 369.466 79.248C369.562 79.248 369.647 79.2533 369.722 79.264C369.797 79.264 369.871 79.2693 369.946 79.28C370.031 79.2907 370.127 79.312 370.234 79.344C370.341 79.376 370.469 79.4133 370.618 79.456V80.512C370.586 80.4693 370.437 80.4213 370.17 80.368C370.053 80.3467 369.946 80.3307 369.85 80.32C369.765 80.3093 369.69 80.304 369.626 80.304C369.178 80.304 368.853 80.432 368.65 80.688C368.447 80.944 368.346 81.312 368.346 81.792V83.424H370.618V84.464H368.346V92H367.194V84.464H365.738V83.424H367.194ZM371.656 83.44H372.808V92H371.656V83.44ZM372.216 79.824C372.44 79.824 372.626 79.8987 372.776 80.048C372.925 80.1973 373 80.4107 373 80.688C373 80.9653 372.93 81.1787 372.792 81.328C372.653 81.4773 372.461 81.552 372.216 81.552C371.97 81.552 371.778 81.4667 371.64 81.296C371.512 81.1253 371.448 80.928 371.448 80.704C371.448 80.352 371.528 80.1173 371.688 80C371.848 79.8827 372.024 79.824 372.216 79.824ZM381.275 84.192V85.696C380.677 85.1307 380.064 84.7253 379.435 84.48C379.253 84.4053 379.067 84.3573 378.875 84.336C378.683 84.304 378.491 84.288 378.299 84.288C377.413 84.288 376.688 84.6187 376.123 85.28C375.557 85.9627 375.275 86.7733 375.275 87.712C375.275 88.672 375.568 89.4933 376.155 90.176C376.741 90.8267 377.477 91.152 378.363 91.152C378.917 91.152 379.424 91.0347 379.883 90.8C380.341 90.5547 380.805 90.192 381.275 89.712V91.232C380.709 91.584 380.197 91.8347 379.739 91.984C379.28 92.1333 378.816 92.208 378.347 92.208C377.152 92.208 376.128 91.7813 375.275 90.928C374.443 90.0427 374.027 88.976 374.027 87.728C374.027 86.5013 374.437 85.4453 375.259 84.56C376.091 83.6853 377.125 83.248 378.363 83.248C378.992 83.248 379.579 83.3547 380.123 83.568C380.443 83.6853 380.827 83.8933 381.275 84.192ZM382.499 83.44H383.651V92H382.499V83.44ZM383.059 79.824C383.283 79.824 383.47 79.8987 383.619 80.048C383.769 80.1973 383.843 80.4107 383.843 80.688C383.843 80.9653 383.774 81.1787 383.635 81.328C383.497 81.4773 383.305 81.552 383.059 81.552C382.814 81.552 382.622 81.4667 382.483 81.296C382.355 81.1253 382.291 80.928 382.291 80.704C382.291 80.352 382.371 80.1173 382.531 80C382.691 79.8827 382.867 79.824 383.059 79.824ZM391.782 86.464V90.496C391.782 90.6773 391.82 90.8373 391.894 90.976C391.98 91.104 392.129 91.168 392.342 91.168C392.406 91.168 392.46 91.168 392.502 91.168C392.545 91.1573 392.588 91.1467 392.63 91.136C392.694 91.1147 392.748 91.0933 392.79 91.072C392.844 91.0507 392.886 91.0347 392.918 91.024V91.92C392.726 91.984 392.534 92.0267 392.342 92.048C392.15 92.08 392.001 92.096 391.894 92.096C391.35 92.096 390.993 91.952 390.822 91.664C390.684 91.4827 390.614 91.0933 390.614 90.496C390.476 90.7307 390.337 90.9387 390.198 91.12C390.06 91.2907 389.921 91.4347 389.782 91.552C389.228 91.9893 388.582 92.208 387.846 92.208C387.068 92.208 386.39 91.9787 385.814 91.52C385.217 91.0293 384.918 90.4053 384.918 89.648C384.918 88.6987 385.398 88 386.358 87.552C386.71 87.3813 387.174 87.232 387.75 87.104C388.337 86.976 389.036 86.8587 389.846 86.752L390.614 86.672C390.614 85.9253 390.422 85.344 390.038 84.928C389.665 84.5013 389.11 84.288 388.374 84.288C388.097 84.288 387.82 84.3253 387.542 84.4C387.276 84.464 387.004 84.5707 386.726 84.72C386.577 84.8053 386.412 84.9067 386.23 85.024C386.049 85.1413 385.852 85.2907 385.638 85.472V84.16C386.545 83.552 387.521 83.248 388.566 83.248C389.633 83.248 390.454 83.584 391.03 84.256C391.532 84.8427 391.782 85.5787 391.782 86.464ZM390.614 88.144V87.632L390.07 87.696C388.737 87.8347 387.798 88.0213 387.254 88.256C386.529 88.544 386.166 89.0133 386.166 89.664C386.166 89.856 386.209 90.0427 386.294 90.224C386.38 90.3947 386.497 90.5493 386.646 90.688C386.796 90.8267 386.977 90.9387 387.19 91.024C387.414 91.1093 387.66 91.152 387.926 91.152C388.652 91.152 389.286 90.8587 389.83 90.272C390.353 89.6747 390.614 88.9653 390.614 88.144ZM394.173 79.456H395.325V92H394.173V79.456ZM401.677 86.32C401.677 87.4613 401.506 88.5547 401.165 89.6C400.909 90.368 400.525 91.1627 400.013 91.984C399.8 92.2933 399.592 92.592 399.389 92.88C399.186 93.1787 398.984 93.4827 398.781 93.792H397.773C397.976 93.4507 398.178 93.1093 398.381 92.768C398.584 92.4373 398.792 92.1013 399.005 91.76C399.218 91.3653 399.405 90.9813 399.565 90.608C399.725 90.2347 399.853 89.8613 399.949 89.488C400.205 88.56 400.333 87.504 400.333 86.32C400.333 85.6907 400.296 85.1093 400.221 84.576C400.157 84.032 400.056 83.52 399.917 83.04C399.821 82.6773 399.688 82.3093 399.517 81.936C399.346 81.552 399.149 81.1573 398.925 80.752C398.712 80.432 398.504 80.1173 398.301 79.808C398.109 79.488 397.917 79.168 397.725 78.848H398.781C398.994 79.168 399.202 79.488 399.405 79.808C399.618 80.1173 399.832 80.4267 400.045 80.736C400.301 81.152 400.525 81.5573 400.717 81.952C400.909 82.336 401.064 82.7147 401.181 83.088C401.512 84.0693 401.677 85.1467 401.677 86.32Z" fill="#41BDF5"/>
</svg>
